<svg width="149" height="116" viewBox="0 0 149 116" fill="none" xmlns="http://www.w3.org/2000/svg">
<path fill-rule="evenodd" clip-rule="evenodd" d="M86.1689 36.2639C85.93 35.3723 86.0236 34.4305 86.2895 33.5377C86.5009 32.8281 87.6025 32.7023 87.6971 31.8277C88.0494 28.5728 86.9678 29.1059 86.2385 26.3841C86.1179 25.9338 85.9389 25.3685 85.7716 24.9443C83.4522 19.0632 76.8111 15.7827 70.282 17.5322C63.2819 19.4078 59.0613 26.3549 60.8549 33.0489C62.3489 38.6242 67.039 40.9528 72.778 40.9304C73.2982 40.9284 73.7164 41.6159 73.8468 42.1026C74.0291 42.7831 75.0979 43.9553 77.2103 43.3893L83.1252 41.8044C85.4585 41.1792 87.0426 39.5249 86.4385 37.2701L86.1689 36.2639ZM74.8565 32.3511C75.2152 33.6899 74.3711 35.0793 72.971 35.4545C71.571 35.8296 70.1453 35.0484 69.7866 33.7096C69.4278 32.3708 70.272 30.9814 71.672 30.6063C73.072 30.2311 74.4977 31.0123 74.8565 32.3511ZM83.1108 32.7375C84.5108 32.3624 85.3549 30.973 84.9962 29.6342C84.6375 28.2954 83.2117 27.5142 81.8117 27.8893C80.4117 28.2645 79.5676 29.6539 79.9263 30.9927C80.2851 32.3315 81.7108 33.1127 83.1108 32.7375Z" fill="white"/>
<path d="M6.39191 88H1.41191V109H6.60191C9.90191 109 11.6119 107.26 11.6119 104.02V102.31C11.6119 100.09 10.9219 98.5 9.15191 97.81C10.6219 97.12 11.2819 95.74 11.2819 93.58V92.83C11.2819 89.59 9.81191 88 6.39191 88ZM6.18191 99.55C7.68191 99.55 8.31191 100.15 8.31191 102.1V103.93C8.31191 105.49 7.71191 106 6.60191 106H4.71191V99.55H6.18191ZM6.30191 91C7.47191 91 7.98191 91.66 7.98191 93.16V94.33C7.98191 96.01 7.23191 96.55 6.00191 96.55H4.71191V91H6.30191ZM22.6294 92.83C22.6294 91.33 23.2894 90.76 24.3394 90.76C25.3894 90.76 26.0494 91.33 26.0494 92.83V104.17C26.0494 105.67 25.3894 106.24 24.3394 106.24C23.2894 106.24 22.6294 105.67 22.6294 104.17V92.83ZM19.3294 103.96C19.3294 107.32 21.0994 109.24 24.3394 109.24C27.5794 109.24 29.3494 107.32 29.3494 103.96V93.04C29.3494 89.68 27.5794 87.76 24.3394 87.76C21.0994 87.76 19.3294 89.68 19.3294 93.04V103.96ZM44.5439 109H47.9339V88H44.9939V100.57L41.6039 88H37.4639V109H40.4339V93.79L44.5439 109ZM59.5967 91H65.2967V88H56.2967V109H65.2967V106H59.5967V99.85H64.1267V96.85H59.5967V91ZM78.2916 100.3H79.7916V104.17C79.7916 105.67 79.1316 106.21 78.0816 106.21C77.0316 106.21 76.3716 105.67 76.3716 104.17V92.83C76.3716 91.33 77.0316 90.76 78.0816 90.76C79.1316 90.76 79.7916 91.33 79.7916 92.83V95.08H82.9116V93.04C82.9116 89.68 81.2316 87.76 77.9916 87.76C74.7516 87.76 73.0716 89.68 73.0716 93.04V103.96C73.0716 107.32 74.7516 109.24 77.9916 109.24C81.2316 109.24 82.9116 107.32 82.9116 103.96V97.3H78.2916V100.3ZM90.8811 88V103.99C90.8811 107.35 92.5611 109.27 95.8011 109.27C99.0411 109.27 100.721 107.35 100.721 103.99V88H97.6011V104.2C97.6011 105.7 96.9411 106.24 95.8911 106.24C94.8411 106.24 94.1811 105.7 94.1811 104.2V88H90.8811ZM108.984 109H112.284V88H108.984V109ZM120.697 109H125.917C129.217 109 130.837 107.17 130.837 103.81V93.19C130.837 89.83 129.217 88 125.917 88H120.697V109ZM125.857 91C126.907 91 127.537 91.54 127.537 93.04V103.96C127.537 105.46 126.907 106 125.857 106H123.997V91H125.857ZM142.243 91H147.943V88H138.943V109H147.943V106H142.243V99.85H146.773V96.85H142.243V91Z" fill="white"/>
<rect x="45" y="1" width="58" height="58" rx="29" stroke="white" stroke-width="2"/>
</svg>
