<svg width="123" height="19" viewBox="0 0 123 19" fill="none" xmlns="http://www.w3.org/2000/svg">
<path d="M30.856 15V7.328H28.056V5.704H35.616V7.328H32.802V15H30.856ZM41.226 15V10.73C41.226 10.2073 41.1326 9.85267 40.946 9.666C40.7686 9.47 40.47 9.372 40.05 9.372C39.826 9.372 39.6253 9.41867 39.448 9.512C39.2706 9.596 39.1213 9.71733 39 9.876C38.8786 10.0253 38.7853 10.2027 38.72 10.408C38.664 10.604 38.636 10.8187 38.636 11.052V15H36.816V5.592H38.636V9.008C38.7013 8.85867 38.7993 8.71867 38.93 8.588C39.07 8.448 39.2286 8.33133 39.406 8.238C39.5833 8.14467 39.7793 8.07 39.994 8.014C40.2086 7.958 40.4326 7.93 40.666 7.93C41.3753 7.93 41.9493 8.126 42.388 8.518C42.836 8.90067 43.06 9.43733 43.06 10.128V15H41.226ZM49.093 10.884C49.0836 10.632 49.037 10.4127 48.953 10.226C48.8783 10.03 48.7756 9.87133 48.645 9.75C48.5143 9.61933 48.365 9.526 48.197 9.47C48.029 9.40467 47.8563 9.372 47.679 9.372C47.315 9.372 46.9976 9.50733 46.727 9.778C46.4656 10.0393 46.3163 10.408 46.279 10.884H49.093ZM46.223 12.032C46.251 12.5547 46.4003 12.97 46.671 13.278C46.951 13.586 47.315 13.74 47.763 13.74C48.0616 13.74 48.323 13.6747 48.547 13.544C48.7803 13.404 48.9296 13.2127 48.995 12.97H50.871C50.6563 13.6793 50.283 14.2253 49.751 14.608C49.219 14.9907 48.5843 15.182 47.847 15.182C45.551 15.182 44.403 13.9313 44.403 11.43C44.403 10.898 44.4776 10.4173 44.627 9.988C44.7763 9.55867 44.991 9.19 45.271 8.882C45.5603 8.574 45.9103 8.34067 46.321 8.182C46.7316 8.014 47.203 7.93 47.735 7.93C48.799 7.93 49.6016 8.27067 50.143 8.952C50.6936 9.63333 50.969 10.66 50.969 12.032H46.223ZM60.6729 13.418C61.1209 13.418 61.4709 13.292 61.7229 13.04C61.9749 12.788 62.1009 12.4707 62.1009 12.088C62.1009 11.6773 61.9749 11.3787 61.7229 11.192C61.4803 11.0053 61.1396 10.912 60.7009 10.912H58.2089V13.418H60.6729ZM58.2089 7.314V9.33H60.6589C61.4429 9.33 61.8349 8.994 61.8349 8.322C61.8349 7.96733 61.7323 7.71067 61.5269 7.552C61.3309 7.39333 61.0043 7.314 60.5469 7.314H58.2089ZM56.3329 15V5.704H60.9109C61.8256 5.704 62.5209 5.93267 62.9969 6.39C63.4729 6.838 63.7109 7.454 63.7109 8.238C63.7109 8.63933 63.6036 8.99867 63.3889 9.316C63.1743 9.624 62.9036 9.84333 62.5769 9.974C62.7729 10.0487 62.9549 10.1467 63.1229 10.268C63.3003 10.38 63.4496 10.5293 63.5709 10.716C63.7016 10.8933 63.8043 11.108 63.8789 11.36C63.9536 11.6027 63.9909 11.892 63.9909 12.228C63.9909 13.0773 63.7063 13.754 63.1369 14.258C62.5676 14.7527 61.6949 15 60.5189 15H56.3329ZM68.502 13.656C69.6127 13.656 70.168 12.956 70.168 11.556C70.168 10.1653 69.6127 9.47 68.502 9.47C67.3913 9.47 66.836 10.1653 66.836 11.556C66.836 12.956 67.3913 13.656 68.502 13.656ZM68.502 15.182C67.942 15.182 67.4427 15.0933 67.004 14.916C66.5653 14.7387 66.192 14.4913 65.884 14.174C65.5853 13.8567 65.3567 13.474 65.198 13.026C65.0393 12.578 64.96 12.088 64.96 11.556C64.96 11.0147 65.0393 10.52 65.198 10.072C65.366 9.624 65.604 9.24133 65.912 8.924C66.22 8.60667 66.5887 8.364 67.018 8.196C67.4567 8.01867 67.9513 7.93 68.502 7.93C69.0433 7.93 69.5287 8.01867 69.958 8.196C70.3873 8.364 70.7513 8.60667 71.05 8.924C71.358 9.232 71.5913 9.61 71.75 10.058C71.918 10.506 72.002 11.0053 72.002 11.556C72.002 12.1067 71.918 12.606 71.75 13.054C71.5913 13.4927 71.358 13.8707 71.05 14.188C70.7513 14.5053 70.3827 14.7527 69.944 14.93C69.5147 15.098 69.034 15.182 68.502 15.182ZM77.7709 15V10.828C77.7709 10.296 77.6822 9.93667 77.5049 9.75C77.3275 9.56333 77.0242 9.47 76.5949 9.47C75.6522 9.47 75.1809 9.99733 75.1809 11.052V15H73.3609V8.112H75.0969V9.12C75.3115 8.728 75.5962 8.434 75.9509 8.238C76.3055 8.03267 76.7629 7.93 77.3229 7.93C77.6495 7.93 77.9529 7.98133 78.2329 8.084C78.5129 8.17733 78.7509 8.322 78.9469 8.518C79.1522 8.714 79.3109 8.95667 79.4229 9.246C79.5442 9.526 79.6049 9.85267 79.6049 10.226V15H77.7709ZM85.6379 10.884C85.6286 10.632 85.5819 10.4127 85.4979 10.226C85.4232 10.03 85.3206 9.87133 85.1899 9.75C85.0592 9.61933 84.9099 9.526 84.7419 9.47C84.5739 9.40467 84.4012 9.372 84.2239 9.372C83.8599 9.372 83.5426 9.50733 83.2719 9.778C83.0106 10.0393 82.8612 10.408 82.8239 10.884H85.6379ZM82.7679 12.032C82.7959 12.5547 82.9452 12.97 83.2159 13.278C83.4959 13.586 83.8599 13.74 84.3079 13.74C84.6066 13.74 84.8679 13.6747 85.0919 13.544C85.3252 13.404 85.4746 13.2127 85.5399 12.97H87.4159C87.2012 13.6793 86.8279 14.2253 86.2959 14.608C85.7639 14.9907 85.1292 15.182 84.3919 15.182C82.0959 15.182 80.9479 13.9313 80.9479 11.43C80.9479 10.898 81.0226 10.4173 81.1719 9.988C81.3212 9.55867 81.5359 9.19 81.8159 8.882C82.1052 8.574 82.4552 8.34067 82.8659 8.182C83.2766 8.014 83.7479 7.93 84.2799 7.93C85.3439 7.93 86.1466 8.27067 86.6879 8.952C87.2386 9.63333 87.5139 10.66 87.5139 12.032H82.7679ZM91.3349 15V7.328H88.5349V5.704H96.0949V7.328H93.2809V15H91.3349ZM99.2336 13.656C100.344 13.656 100.9 12.956 100.9 11.556C100.9 10.1653 100.344 9.47 99.2336 9.47C98.123 9.47 97.5676 10.1653 97.5676 11.556C97.5676 12.956 98.123 13.656 99.2336 13.656ZM99.2336 15.182C98.6736 15.182 98.1743 15.0933 97.7356 14.916C97.297 14.7387 96.9236 14.4913 96.6156 14.174C96.317 13.8567 96.0883 13.474 95.9296 13.026C95.771 12.578 95.6916 12.088 95.6916 11.556C95.6916 11.0147 95.771 10.52 95.9296 10.072C96.0976 9.624 96.3356 9.24133 96.6436 8.924C96.9516 8.60667 97.3203 8.364 97.7496 8.196C98.1883 8.01867 98.683 7.93 99.2336 7.93C99.775 7.93 100.26 8.01867 100.69 8.196C101.119 8.364 101.483 8.60667 101.782 8.924C102.09 9.232 102.323 9.61 102.482 10.058C102.65 10.506 102.734 11.0053 102.734 11.556C102.734 12.1067 102.65 12.606 102.482 13.054C102.323 13.4927 102.09 13.8707 101.782 14.188C101.483 14.5053 101.114 14.7527 100.676 14.93C100.246 15.098 99.7656 15.182 99.2336 15.182ZM112.171 15V10.828C112.171 10.408 112.073 10.0673 111.877 9.806C111.681 9.54467 111.419 9.414 111.093 9.414C110.757 9.414 110.477 9.554 110.253 9.834C110.038 10.114 109.931 10.464 109.931 10.884V15H108.111V10.856C108.111 10.576 108.092 10.3473 108.055 10.17C108.017 9.99267 107.952 9.85267 107.859 9.75C107.775 9.64733 107.663 9.57733 107.523 9.54C107.383 9.49333 107.215 9.47 107.019 9.47C106.281 9.47 105.913 9.918 105.913 10.814V15H104.093V8.112H105.801V9.12C106.034 8.66267 106.314 8.35 106.641 8.182C106.967 8.014 107.359 7.93 107.817 7.93C108.05 7.93 108.255 7.94867 108.433 7.986C108.619 8.02333 108.783 8.08867 108.923 8.182C109.072 8.266 109.212 8.378 109.343 8.518C109.473 8.658 109.604 8.826 109.735 9.022C109.921 8.63933 110.169 8.364 110.477 8.196C110.785 8.01867 111.158 7.93 111.597 7.93C111.942 7.93 112.259 7.99067 112.549 8.112C112.838 8.224 113.085 8.38733 113.291 8.602C113.496 8.80733 113.655 9.05 113.767 9.33C113.888 9.61 113.949 9.90867 113.949 10.226V15H112.171ZM119.883 10.884C119.874 10.632 119.827 10.4127 119.743 10.226C119.669 10.03 119.566 9.87133 119.435 9.75C119.305 9.61933 119.155 9.526 118.987 9.47C118.819 9.40467 118.647 9.372 118.469 9.372C118.105 9.372 117.788 9.50733 117.517 9.778C117.256 10.0393 117.107 10.408 117.069 10.884H119.883ZM117.013 12.032C117.041 12.5547 117.191 12.97 117.461 13.278C117.741 13.586 118.105 13.74 118.553 13.74C118.852 13.74 119.113 13.6747 119.337 13.544C119.571 13.404 119.72 13.2127 119.785 12.97H121.661C121.447 13.6793 121.073 14.2253 120.541 14.608C120.009 14.9907 119.375 15.182 118.637 15.182C116.341 15.182 115.193 13.9313 115.193 11.43C115.193 10.898 115.268 10.4173 115.417 9.988C115.567 9.55867 115.781 9.19 116.061 8.882C116.351 8.574 116.701 8.34067 117.111 8.182C117.522 8.014 117.993 7.93 118.525 7.93C119.589 7.93 120.392 8.27067 120.933 8.952C121.484 9.63333 121.759 10.66 121.759 12.032H117.013Z" fill="white"/>
<path fill-rule="evenodd" clip-rule="evenodd" d="M16.2 15.7607C16.2 15.1055 16.4292 14.477 16.7639 13.9138C17.0299 13.4661 17.782 13.5822 18 13C18.8112 10.8332 18 11 18 9C18 8.6691 17.9818 8.24867 17.9462 7.92714C17.4536 3.46902 13.6362 0 9 0C4.02944 0 0 3.98746 0 8.90625C0 13.0031 2.69386 15.4611 6.5 16.5C6.845 16.5942 7 17.1424 7 17.5C7 18 7.5 19 9 19H13.2C14.8569 19 16.2 18.1569 16.2 16.5V15.7607ZM9.4 11C9.4 11.9838 8.59411 12.7812 7.6 12.7812C6.60589 12.7812 5.8 11.9838 5.8 11C5.8 10.0162 6.60589 9.21875 7.6 9.21875C8.59411 9.21875 9.4 10.0162 9.4 11ZM14.8 12.7812C15.7941 12.7812 16.6 11.9838 16.6 11C16.6 10.0162 15.7941 9.21875 14.8 9.21875C13.8059 9.21875 13 10.0162 13 11C13 11.9838 13.8059 12.7812 14.8 12.7812Z" fill="white"/>
</svg>
