<svg width="122" height="111" viewBox="0 0 122 111" fill="none" xmlns="http://www.w3.org/2000/svg">
<path d="M0.264414 86H3.71441V104H7.01441V86H10.4644V83H0.264414V86ZM21.2178 95H24.9678V104H28.3278V83H24.9678V92H21.2178V83H17.9178V104H21.2178V95ZM40.0205 86H45.7205V83H36.7205V104H45.7205V101H40.0205V94.85H44.5505V91.85H40.0205V86ZM72.9436 104H77.3236L79.6636 83H76.7836L75.0736 99.68L73.4236 83H70.2436L68.6536 99.56L66.8836 83H63.6736L66.0136 104H70.5436L71.7436 92.81L72.9436 104ZM87.3279 104H90.6279V83H87.3279V104ZM106.571 104H109.961L105.371 92.36L109.961 83H106.661L102.341 92.15V83H99.0408V104H102.341V97.55L103.361 95.63L106.571 104ZM117.463 104H120.763V83H117.463V104Z" fill="#FFD750"/>
<path d="M35 42.8867V2.56783C35 1.26473 36.2262 0.309656 37.4897 0.628707L56.7589 5.49468C56.919 5.53511 57.0835 5.55556 57.2486 5.55556H61H64.7514C64.9165 5.55556 65.081 5.53511 65.2411 5.49468L84.5103 0.628707C85.7738 0.309656 87 1.26473 87 2.56783V42.8867C87 43.8027 86.3778 44.6016 85.4897 44.8258L65.2411 49.9391C65.081 49.9796 64.9165 50 64.7514 50H61H57.2486C57.0835 50 56.919 49.9796 56.7589 49.9391L36.5103 44.8258C35.6222 44.6016 35 43.8027 35 42.8867Z" fill="#FFD750"/>
</svg>
